<svg xmlns="http://www.w3.org/2000/svg" width="101.396" height="101.401" viewBox="0 0 101.396 101.401"><defs><style>.a{fill:#202020;}</style></defs><g transform="translate(0 0)"><path class="a" d="M100.223,94.679,79.351,73.806l-.1-.1L27.764,22.219l-.1-.1L6.773,1.208a3.963,3.963,0,0,0-5.6,5.6l17.7,17.7A78.326,78.326,0,0,0,2.614,42.042a15.8,15.8,0,0,0,0,17.407,76.911,76.911,0,0,0,17.8,18.714c9.822,7.307,20.041,11.01,30.378,11.01,8.515,0,16.971-2.535,25.189-7.545l18.654,18.654a3.956,3.956,0,1,0,5.584-5.6Zm-62.3-51.131,5.446,5.446a7.709,7.709,0,0,0,9.248,9.248l5.248,5.248A14.658,14.658,0,0,1,36.022,50.716,14.8,14.8,0,0,1,37.923,43.547ZM50.775,81.232c-19.229,0-35.17-16.436-41.566-26.14a7.882,7.882,0,0,1,0-8.694A69.747,69.747,0,0,1,24.5,30.16l7.664,7.664A22.572,22.572,0,0,0,63.587,69.252l6.575,6.575A39.48,39.48,0,0,1,50.775,81.232Z" transform="translate(0 -0.05)"/></g><g transform="translate(36.032 12.268)"><path class="a" d="M244.816,91.863c-.02-.04-.04-.059-.059-.1a76.259,76.259,0,0,0-17.7-18.734C217.27,65.7,207.052,62,196.715,62a43.749,43.749,0,0,0-11.862,1.663,3.957,3.957,0,0,0,2.119,7.624,36.04,36.04,0,0,1,9.743-1.366c19.149,0,34.932,16.318,41.329,26.041.02.04.04.059.059.1a7.915,7.915,0,0,1,0,8.713,66.526,66.526,0,0,1-7.188,8.951,3.964,3.964,0,0,0,5.743,5.466,71.71,71.71,0,0,0,8.06-10.06,15.922,15.922,0,0,0,.1-17.268Z" transform="translate(-181.952 -62)"/></g><g transform="translate(50.91 28.582)"><path class="a" d="M278.928,161.634a22.666,22.666,0,0,0-16.991-17.149,3.963,3.963,0,1,0-1.782,7.723,14.692,14.692,0,0,1,11.03,11.129,3.971,3.971,0,0,0,3.862,3.109,4.162,4.162,0,0,0,.852-.1A3.983,3.983,0,0,0,278.928,161.634Z" transform="translate(-257.082 -144.382)"/></g></svg>