<svg xmlns="http://www.w3.org/2000/svg" width="101.391" height="101.391" viewBox="0 0 101.391 101.391"><defs><style>.a{fill:#202020;}</style></defs><path class="a" d="M86.539,14.852a50.677,50.677,0,0,0-71.687,0,50.677,50.677,0,0,0,0,71.687,50.677,50.677,0,0,0,71.687,0,50.677,50.677,0,0,0,0-71.687Zm8.812,32.873H78.459A27.688,27.688,0,0,0,72.42,33.17L84.361,21.229A44.11,44.11,0,0,1,95.351,47.725ZM33.17,72.42a27.754,27.754,0,0,0,14.555,6.04V95.351A44.433,44.433,0,0,1,21.209,84.381Zm20.5,6.04a27.688,27.688,0,0,0,14.555-6.04L80.162,84.361A44.312,44.312,0,0,1,53.646,95.332V78.459ZM50.7,72.677A21.981,21.981,0,1,1,72.677,50.7,22.008,22.008,0,0,1,50.7,72.677ZM68.221,28.972a27.754,27.754,0,0,0-14.555-6.04V6.04A44.433,44.433,0,0,1,80.182,17.011Zm-20.5-6.04a27.688,27.688,0,0,0-14.555,6.04L21.229,17.031A44.11,44.11,0,0,1,47.725,6.04ZM17.011,21.209,28.952,33.15a27.754,27.754,0,0,0-6.04,14.555H6.04A44.307,44.307,0,0,1,17.011,21.209ZM6.04,53.666H22.932a27.688,27.688,0,0,0,6.04,14.555L17.031,80.162A44.11,44.11,0,0,1,6.04,53.666ZM84.381,80.182,72.439,68.241a27.754,27.754,0,0,0,6.04-14.555H95.371A44.451,44.451,0,0,1,84.381,80.182Z" transform="translate(0 0)"/><path class="a" d="M216.337,188.93c-3.644-3.367-3.961-5.921-3.98-6.139a2.972,2.972,0,0,0-5.941,0c-.02.218-.317,2.772-3.98,6.139-3.01,2.772-4.535,5.763-4.535,8.892a11.466,11.466,0,0,0,22.932,0c.04-3.129-1.485-6.119-4.5-8.892Zm-3.961-6.06v0Zm-5.941-.079v0Zm2.97,20.556a5.527,5.527,0,0,1-5.525-5.525c0-1.406.871-2.931,2.614-4.535a22.7,22.7,0,0,0,2.911-3.188,22.706,22.706,0,0,0,2.911,3.188c1.743,1.6,2.614,3.129,2.614,4.535a5.527,5.527,0,0,1-5.525,5.525Z" transform="translate(-158.71 -144.274)"/></svg>