<svg xmlns="http://www.w3.org/2000/svg" width="99.225" height="101.09" viewBox="0 0 99.225 101.09"><defs><style>.a{fill:#202020;}</style></defs><g transform="translate(-113.163 -129.212)"><g transform="translate(113.163 129.212)"><path class="a" d="M131.242,142.715c-1.89-1.833-3.751-3.631-5.613-5.436-2.467-2.387-4.922-4.785-7.4-7.16a2.924,2.924,0,0,0-4.922,1.131,3,3,0,0,0,.959,3.226c3.432,3.3,6.852,6.623,10.272,9.935.942.908,1.867,1.833,2.826,2.723a.53.53,0,0,1,.114.771,34.332,34.332,0,0,0-3.785,19.784,37.717,37.717,0,0,0,4.659,15.5,26.075,26.075,0,0,0,14.754,12.321,21.634,21.634,0,0,1,6.115,2.895,13.312,13.312,0,0,1,2.746,2.655,5.453,5.453,0,0,1,.525,5.447c-1.7,4.745-2.221,9.6-.611,14.485a12.264,12.264,0,0,0,7.154,7.719,18.738,18.738,0,0,0,11.248,1.21c5.213-1.068,8.433-4.442,10.295-9.255a28.233,28.233,0,0,0,1.667-11.842,2.933,2.933,0,1,0-5.847.36,22.605,22.605,0,0,1-1.49,9.821,8.135,8.135,0,0,1-9.078,5.344,19.737,19.737,0,0,1-3.363-.634,7.321,7.321,0,0,1-5.521-6.675,17.706,17.706,0,0,1,1.125-8.656,11.683,11.683,0,0,0-3.237-13.018,24.807,24.807,0,0,0-8.747-5.019,21.617,21.617,0,0,1-14.542-14.326,32.3,32.3,0,0,1-1.108-19.744c2.29-8.7,7.942-13.795,16.735-15.365a34.939,34.939,0,0,1,15.485.588c8.033,2.193,13.166,7.463,15.85,15.239a31.254,31.254,0,0,1,1.713,9.33,2.962,2.962,0,0,0,3.026,2.946,2.876,2.876,0,0,0,2.826-3.038c-.383-9.347-3.312-17.62-10.392-24.061a27.775,27.775,0,0,0-14.046-6.68,40.54,40.54,0,0,0-20,1.033,24.713,24.713,0,0,0-9.866,5.949C131.607,142.378,131.436,142.532,131.242,142.715Z" transform="translate(-113.163 -129.212)"/><path class="a" d="M519.57,437.7a22.868,22.868,0,0,0-10.175,2.649,16.842,16.842,0,0,0-8.593,12.544,19.908,19.908,0,0,0,5.013,17.249c.217.246.457.468.7.691a2.928,2.928,0,0,0,4.157-.029,2.893,2.893,0,0,0-.051-4.151,13.48,13.48,0,0,1-3.945-7.417c-.822-4.551-.029-8.707,3.357-12.082a12.143,12.143,0,0,1,7.417-3.289c5.4-.639,9.843,1.033,13.035,5.578a18.437,18.437,0,0,1,2.855,6.566,2.936,2.936,0,1,0,5.732-1.268,21.454,21.454,0,0,0-2.341-6.418c-2.718-4.945-6.6-8.49-12.184-9.872C522.916,438.065,521.232,437.951,519.57,437.7Z" transform="translate(-478.379 -420.086)"/><path class="a" d="M976.008,943.265a2.921,2.921,0,0,0,2.866-1.907,2.877,2.877,0,0,0-.954-3.329c-2.341-1.89-4.7-3.757-7.057-5.635q-19.741-15.724-39.488-31.455c-1.433-1.142-2.986-1.2-4.128-.16a2.934,2.934,0,0,0,.24,4.573c2.672,2.153,5.361,4.282,8.045,6.418q19.142,15.245,38.283,30.5A3.333,3.333,0,0,0,976.008,943.265Z" transform="translate(-879.838 -856.028)"/><path class="a" d="M937.1,1464.15c0-.537.029-1.073-.006-1.61a2.914,2.914,0,0,0-3.112-2.821,2.985,2.985,0,0,0-2.763,3.117,24.759,24.759,0,0,1-.286,4.168c-.485,2.661-1.61,3.237-4.179,2.358-.263-.091-.52-.206-.788-.285a2.931,2.931,0,0,0-2.153,5.436,11.083,11.083,0,0,0,6,1.033,7.468,7.468,0,0,0,6.052-4.716A15.576,15.576,0,0,0,937.1,1464.15Z" transform="translate(-875.958 -1383.748)"/><path class="a" d="M702.8,1017.018a2.957,2.957,0,0,0,2.986,2.975,3,3,0,1,0-.04-6A2.97,2.97,0,0,0,702.8,1017.018Z" transform="translate(-669.133 -963.479)"/></g></g></svg>