<svg xmlns="http://www.w3.org/2000/svg" width="164.08" height="211.139" viewBox="0 0 164.08 211.139"><defs><style>.a{fill:#bccbe8;}.b{fill:#47b56b;}.c{fill:#358c57;}.d{fill:#cccbad;}.e{fill:#dcdecc;}.f{fill:#b3a586;}.g{fill:#9a3591;}.h{fill:#822e61;}.i{fill:#420029;}.j{fill:#9d64b0;}.k,.s{fill:#a7c5d4;}.l{fill:#e0e0ff;}.m{fill:#242e28;}.n{fill:#d14773;}.o{fill:#751b38;}.p{fill:#197314;}.q{fill:#a0c4b3;}.r{fill:#c9ffde;}.s{opacity:0.46;}.t{fill:none;stroke:#933;stroke-miterlimit:10;stroke-width:2px;}.u{fill:#933;}.v{fill:#eb8c9a;}</style></defs><g transform="translate(-191.139 -242.994)"><g transform="translate(191.139 283.416)"><path class="a" d="M605.084,682.123c-7.955-7.9-30.6-1.517-31.3,6.367-.284,3.262,2.595,5.275,13.84,17.215,7.161,7.6,12.8,14.01,16.279,18.038a92.208,92.208,0,0,0,3.63-18.662C608.6,693.312,609.239,686.25,605.084,682.123Z" transform="translate(-519.51 -657.171)"/><path class="b" d="M1162.75,528.689c-2.014,2.5-.922,11.259.312,21.2.667,5.374,1.021,8.083,1.985,9.742,2.638,4.509,7.246,3.375,12.451,2.085,3.9-.964,9.685-2.4,10.508-6.381.369-1.773-.284-3.914-4.694-9.473a83.563,83.563,0,0,0-12.763-13C1165.033,526.307,1163.175,528.164,1162.75,528.689Z" transform="translate(-1024.013 -528.043)"/><path class="c" d="M1186.931,549a1.874,1.874,0,0,1,1.276.993,2.246,2.246,0,0,1-.425,1.844,8.114,8.114,0,0,1-1.276,1.56c-1.078,1.191-1.319,1.39-1.7,1.56-.27.113-1.021.454-1.418.142-.539-.411-.113-1.744,0-2.127A7.274,7.274,0,0,1,1186.931,549Z" transform="translate(-1042.451 -546.028)"/><path class="c" d="M1242.593,607c1.134.34,1.418.865,1.517,1.092.355.893-.553,1.929-2.354,4.013-1.078,1.234-1.829,1.872-2.694,1.844a1.119,1.119,0,0,1-.681-.213c-.581-.525-.17-1.829,0-2.354A8.3,8.3,0,0,1,1242.593,607Z" transform="translate(-1089.619 -595.803)"/><path class="c" d="M1300.278,678a6.073,6.073,0,0,1,1.376.993,6.228,6.228,0,0,1,1.205,1.56c.057.113.113.213.142.284a1.858,1.858,0,0,1,0,.567c-.369,2.283-5.4,3.914-6.523,2.652-.468-.51-.227-1.446,0-2.113A7.364,7.364,0,0,1,1300.278,678Z" transform="translate(-1139.505 -656.735)"/><path class="c" d="M1184.552,664a28.724,28.724,0,0,1,8.65,5.389c3.489,3.2,5.474,6.736,7.8,6.24.808-.17,1.3-.752,4.112-1.844.667-.255,1.205-.454,1.56-.567a3.466,3.466,0,0,1-.284.567,4.594,4.594,0,0,1-1.418,1.418,17.192,17.192,0,0,1-4.112,1.985c-.681.213-.922.241-2.552.709-.808.241-1.319.4-1.418.425-1.6.51-13.1-4.07-12.9-11.628A7.671,7.671,0,0,1,1184.552,664Z" transform="translate(-1043.192 -644.721)"/><path class="d" d="M1182.287,533.7c-1.092,3.049-3.829,5.431-4.878,4.268-.893-.978-.837-4.722.794-8.565a12.059,12.059,0,0,1,3.021,2.1,17.255,17.255,0,0,1,1.319,1.4C1182.472,533.158,1182.387,533.413,1182.287,533.7Z" transform="translate(-1037.056 -529.207)"/><path class="e" d="M1182.4,533.452c-.312.2-.17.6-.425,1.418a9.5,9.5,0,0,0-.425,1.134c-.085.4-.114.964,0,.993s.283-.6.993-2.127c.369-.808.6-1.234.425-1.418A.487.487,0,0,0,1182.4,533.452Z" transform="translate(-1041.038 -532.608)"/><path class="f" d="M1188.4,550.133c-.3.851-.482,1.333-.709,1.843a8.042,8.042,0,0,1-.709,1.276,3.259,3.259,0,0,1-.993,1.134,4.731,4.731,0,0,0-.666.425,4.215,4.215,0,0,0-.326.284.94.94,0,0,0,.284,0,1.137,1.137,0,0,0,.426-.142,3.471,3.471,0,0,0,.567-.284,4.878,4.878,0,0,0,1.135-.993,13.6,13.6,0,0,0,1.276-1.56c.525-.78,1.177-1.815.851-2.411-.043-.071-.085-.1-.426-.567-.071-.1-.1-.142-.142-.142C1188.786,548.984,1188.588,549.608,1188.4,550.133Z" transform="translate(-1044.065 -546.027)"/><path class="d" d="M1230.792,582.822a5.7,5.7,0,0,0,.4-1.319c-.624-.695-1.276-1.4-1.971-2.1-.794-.794-1.56-1.5-2.312-2.141-.837-1.078-1.29-.95-1.517-.737-.3.269-.34.794-.766,2.2-.553,1.858-.723,1.829-.964,2.85a8.942,8.942,0,0,0-.127,3.815c.44,1.787,1.73,2.708,2.864,2.326.851-.284.652-.979,2.567-2.68A5.681,5.681,0,0,0,1230.792,582.822Z" transform="translate(-1076.995 -569.527)"/><path class="d" d="M1298.3,654.966c0,.227-.156.822-2.368,2.326-2.949,2-3.673,1.617-4,1.361a2.013,2.013,0,0,1-.624-.837c-.553-1.361-.057-3.46.34-5.091a11,11,0,0,1,.879-2.6,6.215,6.215,0,0,1,1.191-1.631c.156.156.383.4.652.695a28.579,28.579,0,0,1,2,2.581s.681.95,1.191,1.8c.114.184.2.354.4.695C1298.3,654.881,1298.3,654.924,1298.3,654.966Z" transform="translate(-1135.089 -631.419)"/><path class="e" d="M1231.745,583.081a.589.589,0,0,0-.17.128c-.241.284-.071.823-.326,1.73a8.714,8.714,0,0,1-.425,1.035,2.1,2.1,0,0,0-.1.44c-.085.468-.553,3.318-.269,3.389.184.043.4-1.106,1.73-4.779.2-.567.723-1.971.4-2.17C1232.425,582.769,1232.014,582.925,1231.745,583.081Z" transform="translate(-1082.996 -575.061)"/><path class="e" d="M1297.213,658a1.126,1.126,0,0,0-.567.142c-.369.241-.354.766-.425,1.276-.184,1.3-.851,2.028-1.276,3.4a4.68,4.68,0,0,0-.142.709c-.028.241-.057.553,0,.567.114.028.454-1.177,1.276-2.836a9.873,9.873,0,0,1,1.134-1.985c.383-.411.808-.737.709-.993C1297.836,658.057,1297.411,658,1297.213,658Z" transform="translate(-1138.268 -639.571)"/><path class="f" d="M1251.978,607.134a12.371,12.371,0,0,1-.709,1.844,8.055,8.055,0,0,1-.709,1.276c-.383.567-.652.638-.993,1.134a4.1,4.1,0,0,0-.567,1.276c.142-.184.284-.383.426-.567.1-.1.241-.255.425-.425.539-.51.922-.808,1.135-.993a6.954,6.954,0,0,0,1.276-1.56c.525-.78,1.177-1.815.851-2.411a1.012,1.012,0,0,0-.142-.184,2.309,2.309,0,0,0-.284-.241c-.213-.184-.213-.284-.284-.284C1252.247,606,1252.134,606.567,1251.978,607.134Z" transform="translate(-1098.99 -594.945)"/><path class="f" d="M1308.97,687.56a2.907,2.907,0,0,1-1.134,1.134c-.681.482-1.574,1.177-2.836,2.269a5.364,5.364,0,0,0,.851-.284,5.268,5.268,0,0,0,.567-.284c.284-.156.5-.3.709-.425.624-.4,1.106-.723,1.276-.851.553-.383.837-.581.993-.709.808-.681.907-1.049.879-1.29a.281.281,0,0,0-.028-.128c-.043-.1-.1-.184-.142-.284-.142-.241-.284-.468-.425-.709-.071.128-.17.326-.284.567C1309.155,687.092,1309.07,687.361,1308.97,687.56Z" transform="translate(-1147.048 -663.601)"/><path class="g" d="M752.734,753.545c2.255-16.194,4.977-29.212,6.92-37.692,9.458-4.382,13.429-2.524,15.3,0,2.992,4.027.156,9.09.2,30.105.014,8.423.482,15.1.879,32.956.028,1.361.085,3.588.1,6.509.043,6.48-.1,9.87-.1,12.607,0,6.75.837,10.82,1.56,16.407,2.028,15.641,3.517,27.184-.1,32.814-3.956,6.169-14.8,6.466-21.54-.411C741.758,832.346,747.913,788.089,752.734,753.545Z" transform="translate(-668.323 -686.959)"/><path class="h" d="M903.2,994.118a33.571,33.571,0,0,0,4.2-10.579c1.475-6.977.354-12.167-.681-21.016,0,0-1.361-11.047-1.659-26.035-.113-5.729.085-6.892.979-26.986,1.021-22.816,1.177-30.5,1.659-30.5.681,0,1.376,15.131,1.56,19.115.085,1.9.241,5.729.383,10.309.1,3.063.156,5.615.2,7.459.028,1.659.057,4.041.1,6.92.057,4.325.085,7.36.1,11.118.014,8.423-.128,8.806.1,11.8.2,2.666.411,3.729,1.078,8.537.426,3.091,1.021,7.629,1.659,13.287.454,3.843.624,7.161.681,9.756,0,0,.142,6.14-.978,9.628a14.136,14.136,0,0,1-.581,1.489,11.027,11.027,0,0,1-1.163,1.9,9.408,9.408,0,0,1-3.02,2.439A11.481,11.481,0,0,1,903.2,994.118Z" transform="translate(-802.226 -829.232)"/><path class="g" d="M1007.257,747.9c5.374-1.276,9.1-11.43,16.577-31.736,1.546-4.2,3.4-9.629,5.261-16.265,1.56-5.559,2.694-10.465,3.5-14.379q-6.381-4.616-12.776-9.217a79.177,79.177,0,0,0-5.559,8.14,88.28,88.28,0,0,0-8,17.357c-7.927,23.767-14.833,26.645-13.06,34.714C994.778,743.657,1001.811,749.188,1007.257,747.9Z" transform="translate(-879.226 -655.276)"/><path class="g" d="M819.779,722.134c1.149-5.53,6.991-8.579,11.3-8.537,4.793.043,8.281,4.2,10.338,6.651,3.772,4.509,5.36,9.161,6.821,12.748,8.324,20.335,19.3,21.1,18.917,32.005-.184,5.389-3.106,12.1-7.019,14.237a7.091,7.091,0,0,1-2.638.808c-4.424.567-7.913-2.893-9.458-4.481-3.361-3.432-3.857-6.055-8.281-14.237-1.886-3.5-1.716-2.864-6.438-10.848C819.368,726.842,819.4,723.963,819.779,722.134Z" transform="translate(-730.546 -687.284)"/><path class="h" d="M761.588,988.589c.085-.638.156-1.163.2-1.489,1.021,7.558,1.716,13.684,2.141,17.768.964,9.061.95,9.926,2.34,22.916.666,6.254.95,8.523,1.361,13.287.411,4.722.709,8.834.979,12.748.3,4.169.44,6.324.581,9.359.213,4.4.34,7.048.3,10.437a105.127,105.127,0,0,1-.78,11.259c-.184-.113-.454-.3-.78-.539a16.779,16.779,0,0,1-3.12-3.12c-1.886-2.3-4.765-2.241-5.36-2.439C757.022,1077.94,755.972,1060.343,761.588,988.589Z" transform="translate(-677.177 -922.003)"/><path class="g" d="M404.465,815.078a264.975,264.975,0,0,1-2.822,41.35c-2.538,17.258-4.694,19.541-3.02,25.227,4.424,15,25.965,21.1,37.437,15.046,1.858-.978,3.588-2.354,6.821-3.12,7.686-1.815,12.521,2.482,15.116-1.361.737-1.092.979-2.765,1.461-6.1a46.529,46.529,0,0,0,.3-10.579c-1.078-12.025-1.049-24.263-2.538-36.2-1.276-10.323-2.864-25.156-4.1-44.47-2.907-3.389-6.892-7.969-11.7-13.287-16.237-17.938-19.909-20.08-23.993-20.193-.51-.014-10.026-.113-14.719,8.82C397.715,779.711,403.884,788.631,404.465,815.078Z" transform="translate(-368.693 -728.299)"/><path class="h" d="M448.178,777.035c.78-.851,2.311-.2,3.7.411a11.418,11.418,0,0,1,4.283,3.659c2.694,3.829,2.964,9.728,2.921,14.379-.113,12.876-2.751,33.324-9.841,37.834-.695.44-3.12,1.971-4.481.539-1.134-1.191-1.461-4.311-1.461-4.878v-1.617c0-1.163,7.771-21.427,7.7-33.225C450.957,785.259,446.462,778.907,448.178,777.035Z" transform="translate(-407.542 -741.377)"/><path class="h" d="M808.474,755.452c4.311-3.332,14.975,1.574,27.014,12.238.184.411.326.752.425.993.1.269.227.567.425.993a2.3,2.3,0,0,0,.142.284c.326.652-.794,4.382-4.112,5.956a10.924,10.924,0,0,1-3.687.709c-5.559.681-8.338,1.021-10.352.851A27.382,27.382,0,0,1,805,772.653c.425-3.162.851-6.339,1.276-9.5C805.993,758.118,807.453,756.246,808.474,755.452Z" transform="translate(-717.951 -722.318)"/><path class="b" d="M519.581,1205.721c-2.17-2.113-7.657,3.4-13.869,9.629-3.361,3.375-5.048,5.1-5.885,7.331-2.283,6.112-.326,12.876,1.886,20.519,1.659,5.729,4.112,14.237,6.948,13.812,1.262-.2,2.5-2.141,5.006-11.472a213.823,213.823,0,0,0,5.218-25.738C521.736,1208.287,520.021,1206.16,519.581,1205.721Z" transform="translate(-455.179 -1109.228)"/><path class="c" d="M510.643,1264.9c.667,0,1.248,2.467,1.432,3.942a15.388,15.388,0,0,1-1.574,8.281c-4.24,9.657-2,19.356-3.786,19.5-.383.028-.964-.369-1.815-2.538-.142-.468-1.064-3.417-1.489-5.219-.128-.553-.213-1.007-.213-1.007-.354-2.638-.51-3.162-.581-3.885-.369-3.985,2.737-10.479,3.389-11.841a41.8,41.8,0,0,1,2.113-3.829s.525-.879,1.9-2.708C510.331,1265.17,510.43,1264.9,510.643,1264.9Z" transform="translate(-458.421 -1160.41)"/><path class="g" d="M240.156,780.217a11.719,11.719,0,0,0-8-5.417,26.847,26.847,0,0,0-8.1,4.07c-4.793,3.488-7.2,7.36-10.522,11.926-11.373,15.684-15.613,14.734-19.881,26.035-2.85,7.516-2.581,12.153-2.439,13.7.525,5.814,3.219,12.663,7.4,14.648,3.6,1.7,6.651-.964,16.861-9.629,18.35-15.556,18.789-15.627,20.278-18.307C241.489,806.933,245.729,789.222,240.156,780.217Z" transform="translate(-191.139 -739.809)"/><path class="h" d="M347.906,1094.583a36.7,36.7,0,0,0,6.438,2.311c-.581.51-1.446,1.276-2.538,2.17-.5.411-1.021.837-1.163.95a6.14,6.14,0,0,1-7.218.142c-3.049-2.326-4.453-8.1-3.5-9.359C340.674,1089.762,342.7,1092.144,347.906,1094.583Z" transform="translate(-318.572 -1010.782)"/><path class="h" d="M423.057,1409.614a6.851,6.851,0,0,1-1.758,3.12,4.543,4.543,0,0,1-4.1,1.361c.2-1.191.4-2.411.581-3.659.255-1.659.482-3.29.681-4.878,2-1.517,4-1.219,4.68.142C423.78,1406.934,423.227,1408.948,423.057,1409.614Z" transform="translate(-385.143 -1280.251)"/><path class="g" d="M235.707,1091.232c-1.461,1.248-4.722,2.921-23.5-9.756-8.891-6.013-10.848-8.2-12.181-9.9-3.247-4.127-8.055-10.224-8.281-19.527-.156-6.367,1.787-15.258,6.438-18.165,5.715-3.574,12.989,3.5,19.7,10.04,5.757,5.615,4.793,6.863,9.841,11.117,8.267,6.963,13,5.4,14.719,10.99,1.461,4.793-.539,10.763-2.34,16.137C238.416,1087.148,237.579,1089.644,235.707,1091.232Z" transform="translate(-191.654 -961.33)"/><path class="i" d="M774.142,1195.5a1.828,1.828,0,0,0-1.56,1.9,1.932,1.932,0,0,0,1.56,2.17,2.107,2.107,0,0,0,0-4.07Z" transform="translate(-690.128 -1100.851)"/><path class="i" d="M787.942,1357.1a1.828,1.828,0,0,0-1.56,1.9,1.932,1.932,0,0,0,1.56,2.17,2.107,2.107,0,0,0,0-4.07Z" transform="translate(-701.971 -1239.535)"/><path class="i" d="M796.142,1502.4a1.828,1.828,0,0,0-1.56,1.9,1.932,1.932,0,0,0,1.56,2.17,1.872,1.872,0,0,0,1.56-2.028A1.9,1.9,0,0,0,796.142,1502.4Z" transform="translate(-709.008 -1364.231)"/><path class="j" d="M406.3,797.654a26.514,26.514,0,0,0-7.6,5.7c.95-2.113,3.262-6.566,7.4-8.678a7.468,7.468,0,0,1,5.46-.95c3.673.95,5.729,4.921,6.239,5.97-1.22-1.248-3.772-3.474-7.119-3.389A10.041,10.041,0,0,0,406.3,797.654Z" transform="translate(-369.267 -755.884)"/><path class="j" d="M1079.28,753a45.776,45.776,0,0,1-4.58,7.587c.808-2.1,1.73-4.609,2.723-7.459,1.106-3.191,1.276-3.857,2.042-5.828a49.553,49.553,0,0,1,3.318-7.048A40.293,40.293,0,0,1,1086,735.5c-1.447,3.985-2.68,7.3-3.6,9.756A82.143,82.143,0,0,1,1079.28,753Z" transform="translate(-949.406 -706.081)"/><path class="j" d="M203.389,1040.438a45.89,45.89,0,0,0,.2,4.878,56.456,56.456,0,0,0,1.56,9.217,26.344,26.344,0,0,1-3.8-14.1,29.519,29.519,0,0,1,1.361-7.729,32.929,32.929,0,0,1,4.977-10.309,39.258,39.258,0,0,0-3.02,8.267A44.9,44.9,0,0,0,203.389,1040.438Z" transform="translate(-199.892 -952.297)"/><path class="h" d="M469.252,1276.844c.525.085,2.141-1.064,3.5-4.07,2.652-5.842,3.956-17.825,4.141-19.6.142-1.687.3-3.389.44-5.077-.581,1.376-1.446,3.517-2.34,6.24-1.872,5.658-2.1,8.324-3.418,12.209a37.42,37.42,0,0,1-4.977,9.756,6.922,6.922,0,0,0,.978.269h0C468.529,1276.717,469.2,1276.83,469.252,1276.844Z" transform="translate(-427.538 -1145.992)"/><path class="h" d="M1186.538,696.005a8.44,8.44,0,0,0-.695-2.623c-1.815-4.2-7.813-9.217-8.834-10.026-.865-.681-1.744-1.375-2.609-2.056a43.739,43.739,0,0,0,2.3,4.07,75.608,75.608,0,0,0,5.077,6.963c2.042,2.482,3.871,4.382,3.914,6.509,0,.269,0,1.4.142,1.418.085.014.2-.468.284-.851.1-.326.184-.667.284-.993A7.881,7.881,0,0,0,1186.538,696.005Z" transform="translate(-1034.968 -659.567)"/><path class="j" d="M1156.727,663.248a3.1,3.1,0,0,1,2.141-1.631,2.077,2.077,0,0,1,1.262.411c1.716,1.134,2.779,2.737,4.268,4.424,1.205,1.361,2.326,2.34,3.573,3.588a9.233,9.233,0,0,1,2.623,3.559,18.885,18.885,0,0,1,1.035,5.46c.468-1.687.936-3.474,1.375-5.374.369-1.588.695-3.134.979-4.609a87.816,87.816,0,0,0-8.239-8.1,75.636,75.636,0,0,0-6.183-4.779,4.92,4.92,0,0,0-2.141,2.311A8.541,8.541,0,0,0,1156.727,663.248Z" transform="translate(-1019.734 -638.027)"/><path class="k" d="M639.368,806.518c.184-1.418.383-2.836.567-4.254a24.681,24.681,0,0,0-10.494-7.09,25.368,25.368,0,0,0-17.442.567l.794.794.057.057.709.709c1.39,1.39,5.956,1.56,5.956,1.56a33.374,33.374,0,0,1,8.366,1.56,40.554,40.554,0,0,1,6.1,2.978C636.235,804.618,638.078,805.724,639.368,806.518Z" transform="translate(-552.32 -756.184)"/><path class="k" d="M691.53,853.553A12.31,12.31,0,0,0,686,851q2.127,2.574,4.254,5.247,3.02,3.786,5.814,7.516a12.741,12.741,0,0,0-.142-2.269A12.874,12.874,0,0,0,691.53,853.553Z" transform="translate(-615.826 -805.203)"/><path class="l" d="M677.8,847.1A19.282,19.282,0,0,0,670,842q2.893,3.318,5.814,6.807,3.531,4.233,6.807,8.367A19.324,19.324,0,0,0,677.8,847.1Z" transform="translate(-602.095 -797.479)"/><path class="h" d="M1029,1076.5c.78.525,5.516,3.644,9.217,1.844,1.858-.908,2.865-2.751,4.821-6.381a41.866,41.866,0,0,0,2.269-4.963c1.035,7.6-3.531,13.472-8.225,13.9C1032.729,1081.294,1029.312,1076.912,1029,1076.5Z" transform="translate(-910.187 -990.573)"/><path class="h" d="M1061,926a13.9,13.9,0,0,1,2.978,2.978,13.39,13.39,0,0,1,1.7,3.12A11.9,11.9,0,0,1,1061,926Z" transform="translate(-937.649 -869.568)"/><path class="c" d="M532.9,1255.923c1.205,1.957,2.879,4.07,4.566,3.871,2.666-.326,3.985-6.254,6.013-16.776,3.4-17.754,5.034-30.077,5.8-30.02.383.028.454,3.105.468,3.446a22.414,22.414,0,0,1-.525,5.5c-1.8,7.941-2.992,16.01-4.665,23.979a72.609,72.609,0,0,1-1.985,7.969c-1.475,4.651-3.063,9.686-5.091,9.742C535.311,1263.68,533.51,1258.036,532.9,1255.923Z" transform="translate(-484.436 -1115.868)"/><path class="d" d="M614.271,1240.523c-2.283-.4-4.58-3.687-4.084-5.856.411-1.815,2.893-3.347,5.842-2.453a39.452,39.452,0,0,1-.6,5.672c-.17.964-.369,1.858-.581,2.68A2.115,2.115,0,0,1,614.271,1240.523Z" transform="translate(-550.705 -1132.133)"/><path class="d" d="M586.359,1342.09a2.214,2.214,0,0,0,.978.071c.3-1.276.6-2.609.865-4.013.312-1.588.581-3.106.808-4.566.482-1.787.284-2.439.085-2.708-.255-.355-.61-.2-1.645-.255-1.361-.057-1.39-.354-2.127-.284a3.455,3.455,0,0,0-2.538,1.446,6.68,6.68,0,0,0-.78,5.516c.411,1.219.823.61,2.439,2.893C585.026,1341.012,585.48,1341.821,586.359,1342.09Z" transform="translate(-526.338 -1216.556)"/><path class="d" d="M559.211,1479.875c-.142.114-.581.114-2.155-2.737-2.085-3.786-2.028-5.1-1.943-5.715a4.254,4.254,0,0,1,.383-1.333c.752-1.461,2.255-1.574,3.432-1.659a3.375,3.375,0,0,1,1.929.27,3.988,3.988,0,0,1,1.39,1.191c-.057.312-.156.78-.284,1.333-.34,1.475-.652,2.51-1.177,4.268,0,0-.454,1.489-.865,2.652-.085.255-.184.468-.354.922A3.416,3.416,0,0,1,559.211,1479.875Z" transform="translate(-503.473 -1335.055)"/><path class="j" d="M473.748,1211.8a16.9,16.9,0,0,1,1.262,5.148c.284,3.46-.681,4.892-2.723,13.287-.638,2.624-1.3,5.247-1.943,7.87-.766,3.091-1.12,4.509-2.042,5.97a8.133,8.133,0,0,1-3.5,3.12,7.254,7.254,0,0,0,3.7,1.759,6.2,6.2,0,0,0,3.219-.411c1.517-4.906,3.035-10.479,4.382-16.676,1.234-5.658,2.141-10.99,2.822-15.868a10.782,10.782,0,0,0-2.141-2.581A7.653,7.653,0,0,0,473.748,1211.8Z" transform="translate(-425.993 -1114.84)"/><path class="f" d="M610.289,1338.041c.553-2.212-.752-3.219.2-4.963.128-.227.681-1.248,1.361-1.191a1.052,1.052,0,0,1,.681.468c.128.2.17.454.042,1.418-.071.567-.156.95-.241,1.4-.071.369-.043.284-.241,1.4-.6,3.446-.553,2.935-.695,3.928-.3,1.886-.213,2.637-.78,2.935a1.155,1.155,0,0,1-1.134-.085,1.812,1.812,0,0,1-.61-1.46C608.786,1340.239,609.849,1339.785,610.289,1338.041Z" transform="translate(-549.63 -1217.895)"/><path class="f" d="M642.327,1234.264c.1.028.184.213,0,1.985-.156,1.517-.354,2.666-.539,3.659-.454,2.453-.525,2.666-.61,2.652-.255-.014-.354-2.014-.383-2.581-.156-2.779.269-3.857.44-4.24C641.547,1235.03,642.086,1234.179,642.327,1234.264Z" transform="translate(-577.003 -1134.113)"/><path class="f" d="M575.619,1485.87c.241-.057.227-.454.681-1.659.255-.652.3-.667.51-1.248.312-.837.3-1.049.567-1.957a27.192,27.192,0,0,1,1.064-2.907,3.221,3.221,0,0,0,.383-1.39c0-.567-.184-1.276-.482-1.319-.227-.028-.44.34-.61.666-.794,1.5-.837,2.751-1.319,4.595a6.841,6.841,0,0,1-1.191,2.765,6.412,6.412,0,0,1-.922.936C575.023,1485.657,575.406,1485.927,575.619,1485.87Z" transform="translate(-519.966 -1341.05)"/><path class="h" d="M685.488,1013.8a92.9,92.9,0,0,1-.95,12.323c-.2,1.3-.411,2.581-.638,3.814a40.421,40.421,0,0,0,1.758-9.614A41.587,41.587,0,0,0,685.488,1013.8Z" transform="translate(-614.024 -944.917)"/><path class="h" d="M617.2,977.223c0-.1,2.34-.17,6.254-.865a4.806,4.806,0,0,0,2.865-1.219,4.234,4.234,0,0,0,1.049-2.538,13.152,13.152,0,0,1,.4,1.716,2.54,2.54,0,0,1-.028,1.418c-.383.879-1.886,1.021-2.723,1.078C622.433,977.024,617.2,977.379,617.2,977.223Z" transform="translate(-556.782 -909.56)"/><path class="h" d="M615.7,973.812a39.146,39.146,0,0,1,5.119-.893,38.056,38.056,0,0,1,4.977-.468,31.064,31.064,0,0,1-4.835.893A33.226,33.226,0,0,1,615.7,973.812Z" transform="translate(-555.495 -909.41)"/></g><g transform="translate(205.971 242.994)"><path class="m" d="M843.687,775.711a8.129,8.129,0,0,0,4.112-6.1c.44-7.5-13.571-15.712-18.718-12.337-3.247,2.127-3.6,9.3-.425,14.039C831.959,776.221,839.021,778.447,843.687,775.711Z" transform="translate(-751.191 -683.678)"/><path class="n" d="M842.494,781.494c2.68,1.985,7.728,6.608,6.523,9.232-.808,1.758-4.226,2.184-6.679,1.532-6.594-1.744-9.742-12.238-7.743-14C836.2,776.857,841.459,780.728,842.494,781.494Z" transform="translate(-757.67 -702.096)"/><path class="n" d="M895,804" transform="translate(-810.02 -724.446)"/><path class="o" d="M833.757,761.111a11.358,11.358,0,0,1-5.389-3.971c-2.85-4-2.836-10.1-.851-11.061,2.737-1.319,10.763,6.268,9.359,10.068a2.787,2.787,0,0,1-.993,1.276c-.369-.241-4.056-2.638-4.821-1.844C830.5,756.176,831.644,758.417,833.757,761.111Z" transform="translate(-750.905 -674.609)"/><path class="d" d="M324,687.937c0,.213.17.737,4.821,1.985,4.112,1.092,6.169,1.645,6.665.993.936-1.219-1.361-5.615-4.112-5.956-.284-.028-.61-.028-3.971,1.276C324.312,687.44,324,687.667,324,687.937Z" transform="translate(-319.991 -622.28)"/><path class="d" d="M303.143,531.737c-.539.028-.794-.355-2.694-2.411-3.971-4.3-4.935-4.878-4.68-5.672s1.446-.638,6.239-1.843c3.035-.766,3.46-1.064,3.971-.709C308.134,522.576,305.667,531.6,303.143,531.737Z" transform="translate(-295.73 -481.537)"/><path class="d" d="M357.722,399.107q3.893-5.679,7.8-11.344a43.2,43.2,0,0,0-6.1-.142,13.937,13.937,0,0,1-3.262,0c-1.4-.2-2.2-.581-2.411-.284-.241.355.624,1.134,1.418,2.552a16.08,16.08,0,0,1,1.276,3.687C356.829,394.981,357.3,396.853,357.722,399.107Z" transform="translate(-345.488 -366.775)"/><path class="d" d="M470.008,281.955c-.4.241-.128,1.22,0,2.552a22.812,22.812,0,0,1-.142,3.971c-.34,4.056-2.141,5.559-1.56,6.239,1.361,1.574,12.521-4.836,11.77-7.09-.284-.851-1.929-.142-4.4-1.843-.723-.5-1.588-1.248-4.112-3.12A4.19,4.19,0,0,0,470.008,281.955Z" transform="translate(-443.735 -276.424)"/><path class="d" d="M634.161,243c-.3-.028-.6.709-.709.993-.17.4-.964,1.588-2.552,3.971-1.872,2.808-3.134,2.978-2.978,3.687.482,2.255,13.457,2,13.755.142.113-.766-2.028-.964-4.4-3.829-1.631-1.971-2.439-2.964-2.694-4.112C634.544,243.662,634.416,243.024,634.161,243Z" transform="translate(-580.804 -242.994)"/><path class="d" d="M771.707,267.981c-.113-.028-.255.128-.709.709-.241.312-.369.482-.425.567a8.985,8.985,0,0,1-2.694,2.127c-3.233,1.687-4.836,2.538-4.963,3.262-.355,2.07,6.1,5.757,7.941,4.254.822-.667-.142-1.687.709-5.1a20.578,20.578,0,0,0,.567-4.112c0-.2-.014-.014-.284-1.418C771.835,268.165,771.806,268.009,771.707,267.981Z" transform="translate(-696.654 -264.435)"/><path class="d" d="M870.447,382.792c.284-.284.61-.071,2.269.142a26.871,26.871,0,0,0,7.941-.284,11.114,11.114,0,0,0,2.127-.567c.425-.2.737-.4.851-.284.17.156-.241.851-.567,1.418-1.163,1.957-1.744,2.95-1.985,3.262-2.425,3.162-3.644,4.75-4.963,4.821C872.73,391.5,869.2,384.054,870.447,382.792Z" transform="translate(-788.729 -362.088)"/><path class="d" d="M933.007,494.127c.893.043,1.617-2.269,3.971-5.389.156-.2.567-.752,1.134-1.418a15.166,15.166,0,0,1,1.56-1.7c1.319-1.191,2.326-1.3,2.269-1.56-.085-.4-2.623.085-6.949.142-2.255.028-2.609-.085-3.12.284C929.362,486.3,931.4,494.042,933.007,494.127Z" transform="translate(-840.653 -449.742)"/><path class="b" d="M369.926,356.665c-8.367.638-12.607.908-15.74-1.276-10.366-7.246-9.912-32.516,2.553-48.072,14.365-17.938,38.571-15.343,39.989-15.173,2.4.3,22.646,3.106,31.481,19.569.865,1.6,7.416,13.812,2.127,22.831-2.1,3.574-5.077,4.977-15.315,8.934C385.581,354.835,376.662,356.154,369.926,356.665Z" transform="translate(-339.612 -284.981)"/><path class="p" d="M355,560a76.31,76.31,0,0,1,8.934,4.254,75.131,75.131,0,0,1,8.65,5.672A33.691,33.691,0,0,0,355,560Z" transform="translate(-346.595 -515.047)"/><path class="p" d="M413,430a109.865,109.865,0,0,1,9.076,6.948,107.262,107.262,0,0,1,8.367,7.941A41.706,41.706,0,0,0,413,430Z" transform="translate(-396.371 -403.482)"/><path class="p" d="M521,335q4.616,8.721,9.217,17.442A33.443,33.443,0,0,0,521,335Z" transform="translate(-489.056 -321.953)"/><path class="p" d="M386,701c4.779.893,9.544,1.8,14.322,2.694a57.006,57.006,0,0,1-6.948-.851A61.408,61.408,0,0,1,386,701Z" transform="translate(-373.199 -636.052)"/><path class="p" d="M687,305a60.32,60.32,0,0,1,2.411,9.926,59.7,59.7,0,0,1,.709,9.5Q688.567,314.707,687,305Z" transform="translate(-631.516 -296.207)"/><path class="p" d="M767.65,347q-4.318,7.232-8.65,14.464a45.926,45.926,0,0,0,4.963-6.807A47.8,47.8,0,0,0,767.65,347Z" transform="translate(-693.306 -332.251)"/><path class="p" d="M834.763,442a57.049,57.049,0,0,1-5.672,4.538,57.712,57.712,0,0,1-7.09,4.254A25.944,25.944,0,0,0,834.763,442Z" transform="translate(-747.372 -413.78)"/><path class="q" d="M826.107,439.8c-1.971,1.106-4.07,2.382-6.239,3.829-2.354,1.588-4.481,3.176-6.367,4.722a78.083,78.083,0,0,0,6.679-4.084A74.063,74.063,0,0,0,826.107,439.8Z" transform="translate(-740.078 -411.892)"/><path class="q" d="M520,355q2.212,4.148,4.4,8.65,1.936,4,3.616,7.828A64.2,64.2,0,0,1,520,355Z" transform="translate(-488.197 -339.117)"/><path class="d" d="M751.848,343.114c-.284-2.085,1.9-4.339,3.4-5.389,1.858-1.29,3.049-1.007,5.389-1.985,2.283-.964,3.6-2.283,5.956-4.68A57.1,57.1,0,0,0,774.962,320c-.993,7.459-3.049,11.9-4.821,14.606a20.036,20.036,0,0,0-3.12,6.1c-1.092,3.786-.113,5.261-1.276,6.523C762.98,350.219,752.43,347.312,751.848,343.114Z" transform="translate(-687.147 -309.08)"/><path class="b" d="M477.945,482.48c1.049,5.814,5.006,9.543,7.658,12.053,11.16,10.55,26.121,8.622,26.943,8.508s20.93-3.347,25.1-19.286c2.623-10.011-1.744-22.377-8.225-24.958-1.843-.737-3.857-.681-7.657-2.553-3.729-1.829-4.438-3.191-7.09-4.254-3.956-1.588-7.743-.737-10.352-.142C493.6,454.275,475.308,467.874,477.945,482.48Z" transform="translate(-451.886 -421.574)"/><path class="c" d="M645,756.843c-1.177,2.24,4.254,7.558,6.523,7.657.1,0,.851.028,1.843,0,.425-.014,1.234-.042,2.127-.142a8.087,8.087,0,0,0,2.836-.567,3.992,3.992,0,0,0,1.7-3.829C659.154,756.048,646.534,753.95,645,756.843Z" transform="translate(-595.332 -682.819)"/><path class="d" d="M776.061,738.453c1.418.666-.411,4.566.425,8.508,1.6,7.53,10.253,12.11,17.867,14.89a31.9,31.9,0,0,1-9.217.851A34.266,34.266,0,0,1,765,754.336a25.816,25.816,0,0,1,2.978-8.083C770.275,742.254,774.388,737.659,776.061,738.453Z" transform="translate(-698.455 -668.117)"/><path class="b" d="M616,732.777c-.028,2.283,13.372,5.275,17.726,9.643a44.782,44.782,0,0,0,3.4,3.12c1.39,1.149,2.609,2.014,3.4,2.552-.964-2.964-1.531-6.608-.142-10.068,2.269-5.63,8.14-6.821,7.8-8.367C647.41,726.126,616.042,729.288,616,732.777Z" transform="translate(-570.584 -659.321)"/><path class="r" d="M647.934,557.875a3.991,3.991,0,0,0-1.985,2.694c-1.035,3.956,2.708,9.8,7.232,10.068.241.014,2.992.142,4.112-1.56,1.617-2.482-1.461-6.991-4.112-9.217C652.2,559.038,649.863,557.081,647.934,557.875Z" transform="translate(-596.137 -513.064)"/><path class="r" d="M857.858,547.441c-.071-.355-.667-3.2.709-4.112,1.064-.709,2.737.156,2.978.284,3.8,1.971,4.963,9.175,3.262,10.21C863.317,554.73,858.737,551.44,857.858,547.441Z" transform="translate(-777.983 -500.503)"/><path class="m" d="M875.235,570.611c1.219-.78,1.134-3.3-.142-4.538a2.327,2.327,0,0,0-2.269-.709c-1.29.567-1.73,3.531-.284,4.821A2.424,2.424,0,0,0,875.235,570.611Z" transform="translate(-789.971 -519.56)"/><path class="s" d="M863.383,501.969a3.947,3.947,0,0,0-2.269,1.134c-2.056,1.758-2.113,4.665-2.127,5.956-.085,4.793,2.368,10.267,6.1,11.486a4.047,4.047,0,0,0,2.269.142c2.2-.581,3.162-3.276,3.4-3.971,1.744-4.921-1.73-9.841-2.694-11.2S865.468,501.841,863.383,501.969Z" transform="translate(-779.112 -465.241)"/><path class="t" d="M862.4,501.978a4.416,4.416,0,0,0-3.12,1.134c-3.517,3.4-.2,13.8,5.672,17.584,1.149.737,1.829.879,2.411.709,2.411-.681,3.361-6.736,1.985-11.486C868.485,506.941,866,502.106,862.4,501.978Z" transform="translate(-778.131 -465.25)"/><path class="b" d="M767.794,483.532a36.942,36.942,0,0,1-6.239-7.8c-.482-.808-1.276-2.255-2.694-4.538-1.631-2.638-2.467-3.985-3.261-4.68-2.042-1.8-3.956-1.6-6.807-2.411A21.315,21.315,0,0,1,740,459l23.256,27.936C764.773,485.8,766.277,484.667,767.794,483.532Z" transform="translate(-677 -428.369)"/><path class="d" d="M860.465,706.017c-2.226-1.22-3.644,1.078-8.508,1.276-7.374.3-10.678-4.708-13.9-2.836-2.411,1.4-2.779,5.53-2.269,8.083.964,4.836,5.786,7.431,9.926,9.643a15.841,15.841,0,0,0,5.672,2.127c2.581.369,3.63-.269,4.963.425,1.177.61,2.553,2.212,2.836,6.949a33.29,33.29,0,0,0,3.829-11.912C863.329,717.106,864.393,708.158,860.465,706.017Z" transform="translate(-759.036 -638.658)"/><path class="m" d="M679.747,592.323a3.294,3.294,0,0,0-1.843,2.836c-.227,2.411,2,5.36,4.4,5.105a3.5,3.5,0,0,0,2.836-2.411c.709-2.425-2.042-4.424-2.411-4.68C682.1,592.734,680.938,591.912,679.747,592.323Z" transform="translate(-623.695 -542.69)"/><path class="q" d="M532.175,697.523a9.721,9.721,0,0,0,3.4,3.829,15.888,15.888,0,0,0,5.956,2.836A23.948,23.948,0,0,1,532.175,691,8.9,8.9,0,0,0,532.175,697.523Z" transform="translate(-498.103 -627.47)"/><path class="q" d="M789,592a6.411,6.411,0,0,0,.993,1.7c.837,1.021,1.631,1.319,3.687,2.553.737.44-.113-.043,2.694,1.7,1.5.936,2.765,1.7,3.687,2.269A18.126,18.126,0,0,0,789,592Z" transform="translate(-719.052 -542.509)"/><path class="q" d="M601.9,1209.172c-.071-.17-1.134.085-2.014.426-2.666,1.007-4.765,3.12-4.509,3.517.156.241,1.134-.127,1.29-.2a5.935,5.935,0,0,0,2.1-1.56C600.421,1209.8,601.981,1209.371,601.9,1209.172Z" transform="translate(-552.864 -1072.117)"/><path class="q" d="M1167.674,533.963c-.2-.085-.695.737-.851.993a7.45,7.45,0,0,0-.993,2.836,26.339,26.339,0,0,0-.142,5.247c.142,3.829.34,3.956.425,3.971.3.028.681-1.6.709-1.7.6-2.567-.184-3.659-.142-6.1C1166.738,536.218,1167.985,534.09,1167.674,533.963Z" transform="translate(-1042.28 -492.697)"/><path class="q" d="M362,569a53.333,53.333,0,0,1,15.315,8.65c-2.3-1.064-4.722-2.3-7.232-3.687C367.133,572.318,364.439,570.645,362,569Z" transform="translate(-352.603 -522.771)"/><path class="q" d="M419,439a67.346,67.346,0,0,1,14.748,12.621q-3.446-2.829-6.948-5.814Q422.779,442.382,419,439Z" transform="translate(-401.52 -411.205)"/><path class="q" d="M388,707a54.035,54.035,0,0,0,7.232,1.844,54.782,54.782,0,0,0,5.53.709,21.708,21.708,0,0,1-5.672-.142A21.968,21.968,0,0,1,388,707Z" transform="translate(-374.916 -641.201)"/><path class="q" d="M681,313q.574,4.658,1.418,9.643c.44,2.581.922,5.091,1.418,7.516-.142-2.439-.411-5.1-.851-7.941A82.386,82.386,0,0,0,681,313Z" transform="translate(-626.367 -303.073)"/><path class="c" d="M560.05,469.754h0a6.847,6.847,0,0,1,4.68,1.134,5.663,5.663,0,0,1,1.134,1.134,4.14,4.14,0,0,1,.851,1.56c.241,1.432-1.914,3.063-3.545,3.829a11.028,11.028,0,0,1-5.275.794,24.262,24.262,0,0,1-6.353-.936c-1.333-.638-3.588-1.73-3.545-3.12C548.081,471.6,555.867,470.392,560.05,469.754Z" transform="translate(-512.223 -437.563)"/><path class="q" d="M764.374,349c-1.262,1.886-2.552,3.956-3.829,6.239-1.39,2.482-2.553,4.864-3.545,7.09a77.514,77.514,0,0,0,4.112-6.665C762.4,353.325,763.48,351.085,764.374,349Z" transform="translate(-691.589 -333.968)"/><path class="f" d="M856.869,698.36c-.326,1.574,3.091,3.474,5.53,4.821a40.07,40.07,0,0,0,4.382,1.574c.837.241,7.133,2.028,11.784.553,1.049-.326,1.914-.794,2.127-1.56a2.433,2.433,0,0,0-.284-1.56,6.653,6.653,0,0,0-1.56-2.127C876.268,697.864,857.521,695.255,856.869,698.36Z" transform="translate(-777.277 -632.562)"/><path class="d" d="M551.826,294a12.141,12.141,0,0,1,0,6.523c-.95,3.176-3.006,4.524-5.389,6.949-4.339,4.438-9.714,12.465-7.516,16.449.851,1.546,2.6,2.042,4.4,2.552,5.148,1.461,11.741-.34,12.762-3.687.766-2.5-2.4-3.262-3.4-7.941-1.219-5.63,2.538-8.3,1.56-14.606A16.225,16.225,0,0,0,551.826,294Z" transform="translate(-503.999 -286.767)"/><path class="c" d="M744,464a11.755,11.755,0,0,0,4.4,4.538,11.88,11.88,0,0,0,7.658,1.418A17.882,17.882,0,0,1,744,464Z" transform="translate(-680.433 -432.66)"/><path class="c" d="M750.962,550.971c-.114.184-.227.411-.142.567.255.425,1.985-.44,4.68-1.134,1.106-.284,2.439-.468,5.105-.851,1.9-.269,2.864-.411,2.978-.425.851-.113,1.631-.2,2.694-.425,1.929-.411,2.425-.78,2.411-.993a.784.784,0,0,0-.142-.284c-.113-.184-.213-.326-.284-.425q-3.722.681-7.657,1.56Q755.564,549.687,750.962,550.971Z" transform="translate(-686.261 -503.89)"/><path class="c" d="M863.915,538.762c-.695-1.446-1.574-3.659-1.276-3.829.142-.085.539.34.851.709.227.482.553,1.177.993,1.985a40.8,40.8,0,0,0,2.836,4.538c2.34,3.276,4.155,5.006,3.829,5.389-.1.128-.4.057-.567,0a30.067,30.067,0,0,1-3.971-4.4A26.9,26.9,0,0,1,863.915,538.762Z" transform="translate(-782.197 -493.525)"/><path class="d" d="M858.21,570.405c-.737-2.808,1.858-6.3,2.552-7.232,2.113-2.85,4.042-3.162,6.381-5.389,1.773-1.673,3.9-4.566,4.963-9.785a17.438,17.438,0,0,1,3.971,7.516c.851,3.687-.213,5.077.425,8.934,1.035,6.225,4.708,7.828,3.829,9.785C878.488,578.332,859.883,576.829,858.21,570.405Z" transform="translate(-778.335 -504.749)"/><path class="c" d="M612.344,545.875c-.411-.213-1.943,1.248-2.694,3.12-1.829,4.524,1.361,9.288,2.552,11.061s2.552,3.8,5.247,4.963a10.1,10.1,0,0,0,8.792-.426,9.665,9.665,0,0,0,.851-.567,11.59,11.59,0,0,1-5.53.284,11.858,11.858,0,0,1-6.1-3.4,13.731,13.731,0,0,1-4.112-9.076C611.309,548.484,612.841,546.131,612.344,545.875Z" transform="translate(-564.66 -502.907)"/><path class="s" d="M621.386,535.985a5.739,5.739,0,0,0-2.269,1.135c-2.056,1.758-2.113,4.665-2.127,5.956a13.869,13.869,0,0,0,6.1,11.486c1.432.95,4.651,3.091,8.367,1.985a8.988,8.988,0,0,0,5.389-5.105c1.872-4.864-1.489-10.267-4.821-12.9A12.559,12.559,0,0,0,621.386,535.985Z" transform="translate(-571.432 -494.151)"/><path class="c" d="M693,537.8c.057-.184,4.623.354,7.658,3.12a8.664,8.664,0,0,1,1.56,1.843,9.615,9.615,0,0,1,1.276,3.687,13.348,13.348,0,0,1,.142,3.545c-.269,3.063-1.489,5.587-1.7,5.53a35.557,35.557,0,0,0,.567-4.254,15.332,15.332,0,0,0-1.56-6.807,12.5,12.5,0,0,0-3.687-4.68A13.4,13.4,0,0,0,693,537.8Z" transform="translate(-636.661 -495.969)"/><path class="p" d="M782,594" transform="translate(-713.044 -544.225)"/><path class="p" d="M796,639" transform="translate(-725.059 -582.844)"/><path class="t" d="M616.872,534.484c4.538-2.113,11.869.4,15.031,5.814,2.07,3.531,3.176,9.728-.425,13.046-3.4,3.134-8.82,1.489-9.5,1.276-4.268-1.361-6.254-4.935-7.232-6.665a12.993,12.993,0,0,1-1.843-7.09,7.526,7.526,0,0,1,1.134-3.971A7.285,7.285,0,0,1,616.872,534.484Z" transform="translate(-567.911 -492.509)"/><path class="u" d="M764.577,547.709a73.585,73.585,0,0,0-8.366,1.276,76.5,76.5,0,0,0-9.643,2.694c-.184-.241-.383-.468-.567-.709A50.943,50.943,0,0,1,764.151,547C764.293,547.241,764.435,547.468,764.577,547.709Z" transform="translate(-682.149 -503.89)"/><path class="c" d="M504.739,524a23.18,23.18,0,0,0-6.1,29.5,31.08,31.08,0,0,1-.851-12.9,34.283,34.283,0,0,1,2.269-7.941A42.23,42.23,0,0,1,504.739,524Z" transform="translate(-467.406 -484.152)"/><path class="c" d="M667,451.852a24.026,24.026,0,0,1,5.389-1.134,25.384,25.384,0,0,1,4.538,0A12.536,12.536,0,0,0,667,451.852Z" transform="translate(-614.352 -420.796)"/><path class="e" d="M619.044,1238.173c-1.361-.057-2.482.425-2.794,1.234-.255.681.085,1.574.312,1.588.2,0,.227-.667.667-1.375A3.719,3.719,0,0,1,619.044,1238.173Z" transform="translate(-570.721 -1097.047)"/><path class="e" d="M590.434,1340.377a2.964,2.964,0,0,0-2.311.553c-1.446,1.276-.525,4.1-.425,4.1a5.21,5.21,0,0,1,.624-2.793,5.692,5.692,0,0,1,.922-1.078A4.423,4.423,0,0,1,590.434,1340.377Z" transform="translate(-545.968 -1184.73)"/><path class="e" d="M564.281,1472.228c-1.829-.723-3.574-.454-4.3.553s-.4,2.624-.043,2.694c.312.057.468-1.191,1.574-2.17A4.792,4.792,0,0,1,564.281,1472.228Z" transform="translate(-522.141 -1297.565)"/><path class="f" d="M615.889,321a25.408,25.408,0,0,1,.284,5.814c-.411,6.239-2.552,6.835-1.985,10.21.737,4.368,4.935,7.218,3.829,8.792a4.616,4.616,0,0,1-.993.851,12.029,12.029,0,0,1-2.411,1.418,11.306,11.306,0,0,1-2.836-5.389c-.553-2.708.128-4.949.851-7.374.964-3.219,1.744-3.63,2.552-6.239A20.042,20.042,0,0,0,615.889,321Z" transform="translate(-566.786 -309.938)"/><path class="e" d="M558.076,354a46.416,46.416,0,0,1-4.963,6.807c-.3.34-1.673,1.886-3.4,3.971a17.53,17.53,0,0,0-2.964,4.821c-.057.156-.113.3-.156.425-.482,1.39-1.29,3.758-.142,5.247a4.473,4.473,0,0,0,2.269,1.276,12.137,12.137,0,0,0,4.254.709,13.678,13.678,0,0,1-1.56-5.53s-.014-.284-.014-.567c0-3.049,4.268-11.77,4.268-11.77C556.274,358.141,557.14,356.3,558.076,354Z" transform="translate(-510.391 -338.259)"/><path class="e" d="M765.986,381.755c-.085-.978,2.141-1.957,3.829-2.694,1.985-.865,2.553-.766,3.971-1.418a14.7,14.7,0,0,0,4.4-3.4A42.459,42.459,0,0,0,783.428,368c-4.438,7.374-6.977,10.068-8.508,11.061a39.445,39.445,0,0,0-4.4,3.262c-.553.468-.993.879-1.276,1.134C768.467,383.3,766.071,382.734,765.986,381.755Z" transform="translate(-699.299 -350.274)"/><path class="f" d="M810,378.584a31.425,31.425,0,0,0,4.112-3.4,34.59,34.59,0,0,0,4.254-5.247A55.724,55.724,0,0,0,823.33,361a37.357,37.357,0,0,1-4.538,9.643c-1.475,2.2-3.12,4.07-3.12,6.948,0,1.461.411,2.482-.142,2.978C814.623,381.363,812.085,379.959,810,378.584Z" transform="translate(-737.074 -344.266)"/><path class="e" d="M302,545a12.585,12.585,0,0,1,6.1,6.381c-.638-.822-1.333-1.687-2.127-2.552A40.923,40.923,0,0,0,302,545Z" transform="translate(-301.111 -502.174)"/><path class="e" d="M331,706a7.189,7.189,0,0,0,3.049,1.432,7.959,7.959,0,0,0,.922.128,7.475,7.475,0,0,0-1.134-.709A8.3,8.3,0,0,0,331,706Z" transform="translate(-325.999 -640.343)"/><path class="e" d="M361,392a15.1,15.1,0,0,1,2.269,4.68,14.876,14.876,0,0,1,.567,3.4,7.715,7.715,0,0,0-.284-4.821A7.6,7.6,0,0,0,361,392Z" transform="translate(-351.744 -370.87)"/><path class="e" d="M484.142,288a14.294,14.294,0,0,1,.284,4.68,13.487,13.487,0,0,1-.425,2.269,5.773,5.773,0,0,0,1.276-3.971A5.652,5.652,0,0,0,484.142,288Z" transform="translate(-457.302 -281.618)"/><path class="e" d="M651.12,251a15.472,15.472,0,0,1-3.12,5.389,5.108,5.108,0,0,0,2.836-2.694A4.865,4.865,0,0,0,651.12,251Z" transform="translate(-598.046 -249.865)"/><path class="e" d="M783.523,277A9.976,9.976,0,0,1,777,281.4a4.615,4.615,0,0,0,2.127.142C782.261,280.985,783.481,277.17,783.523,277Z" transform="translate(-708.753 -272.178)"/><path class="e" d="M911.239,392c-.865.17-1.815.326-2.836.425a29.073,29.073,0,0,1-3.4.142,4.569,4.569,0,0,0,1.985.851A5.327,5.327,0,0,0,911.239,392Z" transform="translate(-818.602 -370.87)"/><path class="e" d="M949.249,489.709a6.431,6.431,0,0,1-2.411.142c-.128-.227-.269-.539-.142-.709.2-.284.936.043,1.843.142a5.723,5.723,0,0,0,2.411-.284A6.322,6.322,0,0,1,949.249,489.709Z" transform="translate(-854.343 -454.115)"/><path class="e" d="M878.876,557c-.284,4.481-1.773,7.019-3.12,8.508-2.567,2.85-4.722,2.808-7.516,6.523-1.007,1.333-3.5,4.651-2.269,6.948.794,1.475,2.779,1.872,3.687,1.985-.128-4.212,1.035-6.636,2.127-8.083.993-1.3,1.716-1.645,3.545-3.829a17,17,0,0,0,2.978-4.68A13.134,13.134,0,0,0,878.876,557Z" transform="translate(-784.821 -512.472)"/><path class="f" d="M971.006,586.4c-.6,1.319-2.765,1.645-4.538,1.7a18.7,18.7,0,0,1-1.56-6.665c-.142-3.332.752-5.1,1.134-8.083A23.182,23.182,0,0,0,964.909,563a19.838,19.838,0,0,1,2.269,5.672c1.135,4.977-.482,6.523.709,10.635C969.049,583.321,971.758,584.725,971.006,586.4Z" transform="translate(-870.003 -517.621)"/><path class="f" d="M979,758.276a12.266,12.266,0,0,0,4.68-.425,12.75,12.75,0,0,0,2.127-.851,37.265,37.265,0,0,1-.425,8.934,31.969,31.969,0,0,1-2.836,8.934,22.983,22.983,0,0,0,1.418-8.508,9.346,9.346,0,0,0-.993-4.538A8.547,8.547,0,0,0,979,758.276Z" transform="translate(-882.109 -684.111)"/><path class="e" d="M841.567,717a7.459,7.459,0,0,0-1.843,3.971c-.411,3.474,2.07,6.027,2.836,6.807a10.714,10.714,0,0,0,3.971,2.552A12.531,12.531,0,0,1,841.567,717Z" transform="translate(-762.543 -649.783)"/><path class="e" d="M792.138,766a10.078,10.078,0,0,0-3.971,14.181A16.371,16.371,0,0,1,792.138,766Z" transform="translate(-717.085 -691.835)"/><path class="f" d="M889.912,901.284a43.7,43.7,0,0,1-5.53.284A43,43,0,0,1,878,901a25.631,25.631,0,0,0,11.912.284Z" transform="translate(-795.431 -807.691)"/><path class="v" d="M876,827c.822.737,1.688,1.5,2.6,2.255,1.39,1.149,2.751,2.184,4.07,3.134-.851-.822-1.787-1.688-2.836-2.552A46.286,46.286,0,0,0,876,827Z" transform="translate(-793.715 -744.185)"/><path class="h" d="M617.741,1016.2c-.156,0,.17,4.339.1,9.076,0,0-.014,1.4.326,4.977a6.289,6.289,0,0,0,.255,1.418c.312.964.766,1.4,2.354,3.162,1.6,1.787,1.957,2.255,2.51,2.184.383-.057.681-.354,1.29-.964a7.769,7.769,0,0,0,1.021-1.262,8.747,8.747,0,0,1-3.786-2.482,10.459,10.459,0,0,1-1.914-3.729,26.264,26.264,0,0,1-1.177-4.991C617.982,1018.809,617.883,1016.2,617.741,1016.2Z" transform="translate(-572.042 -906.555)"/></g></g></svg>