<svg xmlns="http://www.w3.org/2000/svg" width="101.386" height="101.411" viewBox="0 0 101.386 101.411"><defs><style>.a{fill:none;}.b{fill:#202020;}.c{fill:#fff;}</style></defs><g transform="translate(20.981)"><path class="a" d="M138.97,192.382a2.966,2.966,0,0,0,2.97-2.97V183.47a2.97,2.97,0,1,0-5.941,0v5.941A2.966,2.966,0,0,0,138.97,192.382Z" transform="translate(-130.059 -144.756)"/><path class="a" d="M321.941,65.942V32.97a2.97,2.97,0,0,0-5.941,0V65.645h2.951A15.014,15.014,0,0,1,321.941,65.942Z" transform="translate(-274.414 -24.059)"/><path class="a" d="M266.066,245.446l-.772-.772L260.64,240H258.6a8.921,8.921,0,0,0,7.981,5.921l-.515-.475Z" transform="translate(-228.381 -192.473)"/><path class="a" d="M178.524,270.8l-3.763-3.763a14.861,14.861,0,0,0-14.436,14.832,2.97,2.97,0,1,1-5.941,0A20.79,20.79,0,0,1,162.5,265.4a15.124,15.124,0,0,1-6.1-5.763,8.864,8.864,0,0,1-10.931-.733,8.93,8.93,0,0,1-8.773,1.822,53.405,53.405,0,0,0,5.485,19.922,3.044,3.044,0,0,1,.317,1.327v21.11h29.7V287.931c0-1.248.475-1.723,1.881-3.168.654-.654,1.545-1.564,2.555-2.574a25.87,25.87,0,0,0,5.367-7.9l-2.5-2.5Z" transform="translate(-130.62 -207.63)"/><path class="a" d="M261.941,135.941V122.97a2.97,2.97,0,1,0-5.941,0V130l1.248,1.248Z" transform="translate(-226.296 -96.236)"/><path class="a" d="M201.683,172.8l-1.307-1.307h0L196,167.1v11.565a2.97,2.97,0,0,0,5.941,0v-5.6l-.257-.257Z" transform="translate(-178.177 -134.009)"/><path class="a" d="M335.481,249.981c.02-.337.02-.673.02-1.01A8.963,8.963,0,0,0,326.589,240H325.5l3.089,3.089Z" transform="translate(-282.032 -192.473)"/><path class="b" d="M157.983,182.013l-.594-.594a25.524,25.524,0,0,1-5.367,7.9c-1.01,1.01-1.9,1.921-2.555,2.574-1.406,1.446-1.881,1.921-1.881,3.168v15.149h-29.7v-21.09a2.978,2.978,0,0,0-.317-1.327,53.78,53.78,0,0,1-5.485-19.922,8.93,8.93,0,0,0,8.773-1.822,8.864,8.864,0,0,0,10.931.733,15,15,0,0,0,6.1,5.763,20.79,20.79,0,0,0-8.119,16.476,2.97,2.97,0,1,0,5.941,0,14.848,14.848,0,0,1,14.436-14.832l-1.98-1.98L146.953,171,144.2,168.23a8.95,8.95,0,0,1-7.981-5.921h2.04l-4.594-4.594-3.9-3.921v5.6a2.97,2.97,0,0,1-5.941,0V147.833l-2.258-2.258.911.911h0l-.911-.911h0l-2.5-2.475a8.538,8.538,0,0,0-.871,2.1,8.9,8.9,0,0,0-12.2,8.278v10.476a59.688,59.688,0,0,0,5.941,25.863v23.368a2.966,2.966,0,0,0,2.97,2.97h35.645a2.966,2.966,0,0,0,2.97-2.97V196.251c.5-.515,1.327-1.347,2.713-2.733a31.4,31.4,0,0,0,5.6-7.644l-1.366-1.366Zm-46.042-28.536a2.97,2.97,0,1,1,5.941,0v5.941a2.97,2.97,0,1,1-5.941,0Z" transform="translate(-106 -114.762)"/><path class="b" d="M215.388,33.17l.594.594v-7.03a2.97,2.97,0,0,1,5.941,0V39.7l7.644,7.644.178.178h1.089a8.963,8.963,0,0,1,8.911,8.971c0,.337,0,.673-.02,1.01l1.05,1.05,4,4,.257.257a31.99,31.99,0,0,0,.634-6.337,14.9,14.9,0,0,0-5.941-11.921V8.911a8.911,8.911,0,0,0-17.823,0v9.426a8.671,8.671,0,0,0-2.97-.515,8.907,8.907,0,0,0-8.614,6.654,8.958,8.958,0,0,0-3.267-.614,7.657,7.657,0,0,0-.951.059l1.327,1.327ZM227.863,8.911a2.97,2.97,0,0,1,5.941,0V41.883a15.014,15.014,0,0,0-2.99-.3h-2.951Z" transform="translate(-186.277)"/><line class="c" transform="translate(38.2 53.448)"/><line class="c" transform="translate(40.953 56.221)"/><line class="c" transform="translate(23.506 38.794)"/><path class="b" d="M218.1,189.3" transform="translate(-195.901 -151.813)"/><line class="c" transform="translate(15.565 30.833)"/><path class="b" d="M312.8,283.9" transform="translate(-271.847 -227.679)"/><path class="b" d="M318.9,290h0" transform="translate(-276.739 -232.571)"/><path class="b" d="M401.757,316.257h0L401.5,316Z" transform="translate(-342.982 -253.423)"/><path class="b" d="M256,170.5" transform="translate(-226.296 -136.736)"/><path class="b" d="M421.8,302.7" transform="translate(-359.262 -242.756)"/></g><g transform="translate(0 0.01)"><path class="a" d="M196.946,225.246l-2.3-2.3h0l-1.842-1.842h0L191.5,219.8" transform="translate(-153.587 -176.283)"/><path class="a" d="M272.948,301.167h0L269.7,297.9" transform="translate(-216.301 -238.917)"/><path class="a" d="M133.228,161.528l-.911-.911h0L126,154.3" transform="translate(-101.058 -123.754)"/><path class="a" d="M327.855,356.155l-2.5-2.5h0l-3.069-3.069h0l-.99-.99" transform="translate(-257.683 -280.379)"/><path class="b" d="M192.807,221.007,191.5,219.7h0l1.307,1.307Z" transform="translate(-153.587 -176.203)"/><path class="b" d="M158.891,187.111h0L158,186.2h0Z" transform="translate(-126.721 -149.337)"/><path class="b" d="M322.29,350.49l-.99-.99h0l.99.99Z" transform="translate(-257.683 -280.298)"/><path class="b" d="M287.308,315.708c.02,0,.02-.02,0,0L286.1,314.5h0Z" transform="translate(-229.454 -252.229)"/><path class="b" d="M379.849,351.649l3.406,3.406h0L374.7,346.5l5.05,5.05A.239.239,0,0,1,379.849,351.649Z" transform="translate(-300.508 -277.893)"/><path class="b" d="M383.6,411.9l1.188,1.188h0L383.6,411.9Z" transform="translate(-307.646 -330.341)"/><path class="b" d="M344.3,372.6h0l-2.5-2.5h0Z" transform="translate(-274.123 -296.819)"/><path class="b" d="M266.572,294.772,265.8,294h0l.772.772Z" transform="translate(-213.174 -235.789)"/><path class="b" d="M209.7,238h0l-2.3-2.3h0Z" transform="translate(-166.339 -189.034)"/><path class="b" d="M6.813,1.208a3.963,3.963,0,0,0-5.6,5.6L18.635,24.239l5.6-5.6Z" transform="translate(-0.05 -0.05)"/><rect class="b" width="7.921" height="4.614" transform="translate(53.4 58.987) rotate(-45)"/><rect class="b" width="7.921" height="8.931" transform="translate(24.949 30.559) rotate(-45)"/><path class="b" d="M329.369,334.974l5.6-5.6.931.931-4-4-5.6,5.584Z" transform="translate(-261.693 -261.693)"/><rect class="b" width="7.921" height="2.614" transform="translate(39.221 44.813) rotate(-45)"/><path class="b" d="M412.751,407.166,395.3,389.7l-5.6,5.6,17.466,17.466a3.956,3.956,0,0,0,5.584-5.6Z" transform="translate(-312.538 -312.538)"/><path class="b" d="M100.257,105.861l5.6-5.6-2.772-2.772-.1-.1L99.5,93.9l-5.6,5.6" transform="translate(-75.315 -75.315)"/><path class="b" d="M165.861,171.445l5.6-5.584L163.5,157.9l-5.6,5.6" transform="translate(-126.641 -126.641)"/><path class="b" d="M287.408,292.912h0l5.743,5.743h0l.99.99,5.6-5.6L291.8,286.1l-5.6,5.6Z" transform="translate(-229.534 -229.454)"/><path class="b" d="M353.384,347.88l-.1-.1-5.05-5.05-.931-.931-5.6,5.6,2.5,2.5h0l5.782,5.782h0l1.188,1.188,5.6-5.6Z" transform="translate(-274.043 -274.123)"/><path class="b" d="M209.617,215.3h0l9.248,9.268h0l.772.772,5.6-5.6L212.9,207.4l-5.6,5.6Z" transform="translate(-166.258 -166.338)"/><path class="b" d="M375.777,290.4a4.76,4.76,0,0,0,5.327,5.327" transform="translate(-301.348 -232.902)"/><path class="b" d="M286,200.5a8.5,8.5,0,0,0,2.119,4.971,8.609,8.609,0,0,0,5.7,2.832" transform="translate(-229.373 -160.805)"/><path class="b" d="M206.2,120.7a3.6,3.6,0,0,0,.891,2.2,3.731,3.731,0,0,0,2.594,1.208" transform="translate(-165.376 -96.808)"/></g></svg>